# xmcd
#
# Track frame offsets:
#	150
#	21977
#	40025
#	53687
#	78657
#	103562
#	121852
#	142830
#	163895
#	182717
#	197837
#	213170
#	241235
#	259382
#
# Disc length: 3680 seconds
#
# Revision: 0
# Processed by: cddbd v1.5.1PL0 Copyright (c) Steve Scherf et al.
# Submitted via: audiograbber 1.83.01
#
DISCID=bd0e5e0e
DTITLE=Hank Snow - The Singing Ranger, Vol. 4 (9 of 9)
DYEAR=1900
DGENRE=
TTITLE0=I'm Movin' On [Live]
TTITLE1=Send Me the Pillow That You Dream On [Live]
TTITLE2=In the Misty Moonlight [Live]
TTITLE3=Orange Blossom Special [Instrumental/Live]
TTITLE4=Train Whistle Blues [Live]
TTITLE5=Tammy [Instrumental/Live]
TTITLE6=Black Diamond [Live]
TTITLE7=Break My Mind [Live]
TTITLE8=Where Has All the Love Gone? [Live]
TTITLE9=Hula Love [Live]
TTITLE10=Snow in Hawaii [Live]
TTITLE11=Hawaiian Sunset [Instrumental/Live]
TTITLE12=I've Been Everywhere [Live]
TTITLE13=Medley: The Goldrush Is over/The Wreck of the Old '97/One More Ride [L
TTITLE13=i
EXTD=
EXTT0=
EXTT1=
EXTT2=
EXTT3=
EXTT4=
EXTT5=
EXTT6=
EXTT7=
EXTT8=
EXTT9=
EXTT10=
EXTT11=
EXTT12=
EXTT13=
PLAYORDER=
